# xmcd
# 
# Track frame offsets:
#     150
#     19900
#     36217
#     50685
#     65727
#     82400
#     102762
#     118140
#     139895
#     156910
#     174107
#     188915
#     207450
#     234145
# 
# Disc length: 4440
# 
# Revision: 12
# Processed by: cddbd v1.5.2PL0 Copyright (c) Steve Scherf et al.
# Submitted via: fre:ac v1.0.27
# 
DISCID=c811560e
DTITLE=J. J. Cale - To Tulsa and Back
DYEAR=2004
DGENRE=Rock
TTITLE0=My Gal
TTITLE1=Chains of Love
TTITLE2=New Lover
TTITLE3=One Step
TTITLE4=Stone River
TTITLE5=The Problem
TTITLE6=Homeless
TTITLE7=Fancy Dancer
TTITLE8=Rio
TTITLE9=These Blues
TTITLE10=Motormouth
TTITLE11=Blues For Mama
TTITLE12=Another Song
TTITLE13=DATA
EXTD=YEAR: 2004 ID3G: 17
EXTT0=
EXTT1=
EXTT2=
EXTT3=
EXTT4=
EXTT5=
EXTT6=
EXTT7=
EXTT8=
EXTT9=
EXTT10=
EXTT11=
EXTT12=
EXTT13=
PLAYORDER=
